<svg width="131" height="27" viewBox="0 0 131 27" fill="none" xmlns="http://www.w3.org/2000/svg">
<path d="M15.978 13.1086C17.2907 13.1086 18.4052 13.381 19.3216 13.9259C20.2628 14.446 20.9686 15.1271 21.4392 15.9692C21.9098 16.8113 22.1451 17.7029 22.1451 18.6441C22.1451 20.9475 21.1544 22.7555 19.173 24.0681C17.2164 25.356 14.3434 26 10.554 26H0.337436V24.6997L2.15784 24.6626V2.44626L0.337436 2.40911V1.10883L7.50758 1.18313L12.9316 0.737316C15.3093 0.737316 17.1297 1.25743 18.3928 2.29766C19.656 3.31312 20.2875 4.66294 20.2875 6.34712C20.2875 7.93223 19.755 9.30681 18.69 10.4709C17.625 11.6102 16.0647 12.5266 14.009 13.2201L15.978 13.1086ZM13.6746 7.75886C13.6746 6.00037 13.2165 4.67532 12.3001 3.7837C11.4084 2.86731 10.0834 2.40911 8.3249 2.40911V13.1086C10.1329 12.9848 11.4704 12.4894 12.3372 11.6226C13.2288 10.7309 13.6746 9.44304 13.6746 7.75886ZM8.3249 24.6997C10.8512 24.6997 12.684 24.3034 13.8233 23.5109C14.9625 22.7183 15.5322 21.4552 15.5322 19.7215C15.5322 17.9878 15.0121 16.6751 13.9719 15.7835C12.9564 14.8918 11.4456 14.446 9.43943 14.446H8.3249V24.6997ZM42.1979 23.5109L37.0339 26.4458C36.2414 26.0248 35.6593 25.4551 35.2878 24.7369C34.9163 23.9938 34.7306 23.0527 34.7306 21.9134L31.5356 26.5573C29.2074 26.5573 27.4861 26 26.3716 24.8855C25.2571 23.7462 24.6998 22.0001 24.6998 19.6472V10.4709L23.3252 10.3594V9.28205H29.9381V18.1611C29.9381 19.2757 30.2229 20.1425 30.7926 20.7617C31.387 21.3561 32.1671 21.6657 33.1331 21.6905L34.7306 20.2044V10.4709L33.3931 10.3594V9.28205H39.9689V19.7586C39.9689 20.675 40.0184 21.3561 40.1175 21.8019C40.2413 22.2477 40.427 22.6316 40.6747 22.9536L41.7893 22.3964L42.1979 23.5109ZM48.3078 12.0684C48.3078 12.7371 48.5679 13.3439 49.088 13.8888C49.6329 14.4337 50.4502 15.0776 51.5399 15.8206C52.8774 16.737 53.8928 17.5667 54.5863 18.3097C55.2798 19.0528 55.6265 19.9692 55.6265 21.0589C55.6265 22.0248 55.3417 22.9289 54.7721 23.7709C54.2024 24.613 53.3975 25.2941 52.3573 25.8142C51.317 26.3096 50.1282 26.5573 48.7908 26.5573C47.5029 26.5573 46.2769 26.2477 45.1128 25.6285C43.9735 25.0093 43.1314 24.2168 42.5865 23.2508L45.7815 20.6874C46.7722 22.545 47.7877 24.0681 48.8279 25.257C49.249 24.935 49.5957 24.5635 49.8681 24.1424C50.1653 23.6966 50.314 23.2632 50.314 22.8422C50.314 22.1487 50.0539 21.5543 49.5338 21.0589C49.0384 20.5388 48.2583 19.9196 47.1933 19.2014C46.3264 18.6317 45.6329 18.1364 45.1128 17.7153C44.5927 17.2943 44.1469 16.7866 43.7754 16.1921C43.4286 15.5977 43.2553 14.929 43.2553 14.186C43.2553 13.2696 43.5525 12.3903 44.1469 11.5483C44.7661 10.7062 45.6205 10.0251 46.7103 9.50495C47.8001 8.98484 49.0384 8.72478 50.4254 8.72478C51.4904 8.72478 52.4935 8.96007 53.4346 9.43065C54.4006 9.87646 55.1807 10.4461 55.7752 11.1396L52.8774 14.0002C51.6885 12.4894 50.3759 11.1396 48.9394 9.95077C48.5183 10.4956 48.3078 11.2015 48.3078 12.0684ZM47.0818 26H47.119H47.0818ZM59.1843 1.44319L63.9397 0.365805V4.60102L59.1843 5.30689V1.44319ZM64.3112 24.8112L65.6858 24.9226V26H57.6983V24.9226L59.0729 24.8112L58.9614 11.5854L57.5497 11.8826L57.1782 10.8052L63.9025 8.72478L64.4226 9.61641L64.3112 24.8112ZM85.4309 24.9226V26H77.4806V24.9226L78.8552 24.8112V16.9723C78.8552 15.8825 78.5456 15.0405 77.9264 14.446C77.332 13.8516 76.5023 13.542 75.4373 13.5173L74.2485 14.7432L74.0999 24.8112L75.4745 24.9226V26H67.487V24.9226L68.8616 24.8112L68.7501 11.5111L67.3384 11.8455L66.9669 10.7309L72.8367 8.91054L74.137 13.0714L77.2206 8.65048C79.5735 8.65048 81.3072 9.20775 82.4217 10.3223C83.5362 11.4368 84.0935 13.1581 84.0935 15.4863V24.8112L85.4309 24.9226ZM95.1454 8.72478C97.3249 8.72478 99.0338 9.51734 100.272 11.1024C101.535 12.6628 102.155 14.7804 102.13 17.4553L91.8761 17.7896C92.0494 19.2509 92.5572 20.3654 93.3993 21.1332C94.2413 21.901 95.3559 22.2849 96.7428 22.2849C98.6747 22.2849 100.247 21.7524 101.461 20.6874L102.13 21.2818C101.263 22.9412 100.086 24.2415 98.6004 25.1827C97.1391 26.0991 95.5788 26.5573 93.9194 26.5573C91.6655 26.5573 89.8699 25.8142 88.5325 24.3282C87.2198 22.8174 86.5635 20.7865 86.5635 18.2354C86.5635 16.7246 86.8607 15.2262 87.4551 13.7402C88.0743 12.2541 88.8544 11.0158 89.7956 10.0251C90.4396 9.65356 91.2693 9.34397 92.2847 9.09629C93.3002 8.84862 94.2537 8.72478 95.1454 8.72478ZM96.6314 16.2293C96.6066 14.4956 96.359 13.121 95.8884 12.1055C95.4178 11.0901 94.7491 10.4833 93.8822 10.2851C93.263 10.9291 92.7553 11.8331 92.359 12.9971C91.9875 14.1364 91.8018 15.3129 91.8018 16.5265V16.6379L96.6314 16.2293ZM108.823 12.0684C108.823 12.7371 109.083 13.3439 109.603 13.8888C110.148 14.4337 110.966 15.0776 112.055 15.8206C113.393 16.737 114.408 17.5667 115.102 18.3097C115.795 19.0528 116.142 19.9692 116.142 21.0589C116.142 22.0248 115.857 22.9289 115.288 23.7709C114.718 24.613 113.913 25.2941 112.873 25.8142C111.833 26.3096 110.644 26.5573 109.306 26.5573C108.018 26.5573 106.792 26.2477 105.628 25.6285C104.489 25.0093 103.647 24.2168 103.102 23.2508L106.297 20.6874C107.288 22.545 108.303 24.0681 109.343 25.257C109.764 24.935 110.111 24.5635 110.384 24.1424C110.681 23.6966 110.829 23.2632 110.829 22.8422C110.829 22.1487 110.569 21.5543 110.049 21.0589C109.554 20.5388 108.774 19.9196 107.709 19.2014C106.842 18.6317 106.148 18.1364 105.628 17.7153C105.108 17.2943 104.662 16.7866 104.291 16.1921C103.944 15.5977 103.771 14.929 103.771 14.186C103.771 13.2696 104.068 12.3903 104.662 11.5483C105.282 10.7062 106.136 10.0251 107.226 9.50495C108.316 8.98484 109.554 8.72478 110.941 8.72478C112.006 8.72478 113.009 8.96007 113.95 9.43065C114.916 9.87646 115.696 10.4461 116.291 11.1396L113.393 14.0002C112.204 12.4894 110.891 11.1396 109.455 9.95077C109.034 10.4956 108.823 11.2015 108.823 12.0684ZM107.597 26H107.634H107.597ZM123.118 12.0684C123.118 12.7371 123.378 13.3439 123.898 13.8888C124.443 14.4337 125.26 15.0776 126.35 15.8206C127.687 16.737 128.703 17.5667 129.396 18.3097C130.09 19.0528 130.436 19.9692 130.436 21.0589C130.436 22.0248 130.152 22.9289 129.582 23.7709C129.012 24.613 128.207 25.2941 127.167 25.8142C126.127 26.3096 124.938 26.5573 123.601 26.5573C122.313 26.5573 121.087 26.2477 119.923 25.6285C118.783 25.0093 117.941 24.2168 117.396 23.2508L120.591 20.6874C121.582 22.545 122.598 24.0681 123.638 25.257C124.059 24.935 124.406 24.5635 124.678 24.1424C124.975 23.6966 125.124 23.2632 125.124 22.8422C125.124 22.1487 124.864 21.5543 124.344 21.0589C123.848 20.5388 123.068 19.9196 122.003 19.2014C121.136 18.6317 120.443 18.1364 119.923 17.7153C119.403 17.2943 118.957 16.7866 118.585 16.1921C118.239 15.5977 118.065 14.929 118.065 14.186C118.065 13.2696 118.362 12.3903 118.957 11.5483C119.576 10.7062 120.43 10.0251 121.52 9.50495C122.61 8.98484 123.848 8.72478 125.235 8.72478C126.3 8.72478 127.303 8.96007 128.245 9.43065C129.21 9.87646 129.991 10.4461 130.585 11.1396L127.687 14.0002C126.498 12.4894 125.186 11.1396 123.749 9.95077C123.328 10.4956 123.118 11.2015 123.118 12.0684ZM121.892 26H121.929H121.892Z" fill="#464646"/>
</svg>
