<svg width="141" height="37" viewBox="0 0 141 37" fill="none" xmlns="http://www.w3.org/2000/svg">
<path d="M8.06177 6.04683C8.06177 6.83939 8.28467 7.57002 8.73049 8.23874C9.1763 8.90746 9.73356 9.50188 10.4023 10.022C11.071 10.5421 11.9874 11.1861 13.1515 11.9538C14.5137 12.8455 15.6034 13.638 16.4207 14.3315C17.2381 15.0002 17.9316 15.8175 18.5012 16.7835C19.0956 17.7246 19.3928 18.7896 19.3928 19.9785C19.3928 21.2911 19.0337 22.5295 18.3154 23.6936C17.5972 24.8329 16.5198 25.7616 15.0833 26.4799C13.6468 27.1981 11.9131 27.5573 9.88217 27.5573C5.52312 27.5573 2.4272 25.8236 0.594416 22.3561L4.79248 19.124C5.98131 21.576 7.31875 23.9536 8.80479 26.257H8.84194C9.56019 26.257 10.2289 26.0712 10.8481 25.6997C11.4673 25.3034 11.9626 24.7957 12.3341 24.1765C12.7056 23.5573 12.8914 22.901 12.8914 22.2075C12.8914 21.4645 12.6685 20.7834 12.2227 20.1642C11.8016 19.5203 11.2691 18.963 10.6252 18.4924C9.98124 17.9971 9.102 17.4027 7.98747 16.7092C6.65003 15.8671 5.57265 15.1241 4.75533 14.4801C3.93801 13.8362 3.23214 13.056 2.63772 12.1396C2.06807 11.1984 1.78325 10.1211 1.78325 8.90746C1.78325 7.54526 2.16714 6.30689 2.93493 5.19236C3.72748 4.05306 4.84201 3.16144 6.27852 2.51749C7.73979 1.87354 9.44874 1.55156 11.4054 1.55156C13.3124 1.55156 14.8728 1.86115 16.0864 2.48034C17.3248 3.07475 18.4393 3.92922 19.43 5.04376L15.5291 8.98176C14.2165 6.80224 12.8914 4.75893 11.554 2.85185C10.4394 2.85185 9.57258 3.16144 8.95339 3.78062C8.35898 4.37504 8.06177 5.13044 8.06177 6.04683ZM36.3627 25.0681L30.9015 27.6316C30.2328 27.161 29.7746 26.517 29.5269 25.6997C28.6353 26.2446 27.7313 26.6904 26.8149 27.0372C25.9233 27.3839 25.1431 27.5573 24.4744 27.5573C23.4589 27.5573 22.6292 27.1981 21.9853 26.4799C21.3413 25.7616 21.0193 24.8452 21.0193 23.7307C21.0193 23.2354 21.0689 22.7029 21.1679 22.1332C21.2918 21.5388 21.4404 21.0682 21.6138 20.7215L29.4898 19.4583L29.5641 18.381C29.6136 17.2664 29.3783 16.3996 28.8582 15.7804C28.3381 15.1364 27.496 14.8145 26.3319 14.8145C25.8118 14.8145 25.2669 14.8764 24.6973 15.0002C24.1276 15.0993 23.6447 15.2355 23.2484 15.4089L22.654 16.672L21.6509 16.3005L23.3599 10.9508C25.2669 10.1334 27.075 9.72478 28.7839 9.72478C30.5424 9.72478 31.9789 10.1954 33.0934 11.1365C34.2079 12.0529 34.7652 13.5018 34.7652 15.4832L34.7281 16.2262L34.3566 21.2416L34.2823 22.579C34.2823 23.0248 34.3194 23.384 34.3937 23.6564C34.468 23.9041 34.5918 24.1641 34.7652 24.4366L35.9169 23.9908L36.3627 25.0681ZM27.9294 24.8824C28.3257 24.8824 28.7839 24.7338 29.304 24.4366L29.2669 23.6564L29.304 22.8391L29.4155 20.7215L26.5548 21.3902C26.4558 21.7122 26.4062 22.1456 26.4062 22.6905C26.4062 23.4335 26.5548 23.9908 26.852 24.3623C27.1493 24.709 27.5084 24.8824 27.9294 24.8824ZM55.6714 24.3994L50.4702 27.4458C48.9099 26.1827 47.6344 24.2261 46.6437 21.576L46.235 20.4243L43.8202 21.4645L43.783 25.8112L45.1576 25.9226V27H37.1702V25.9226L38.5447 25.8112L38.359 3.55771L36.9473 3.85492L36.5757 2.77754L43.4487 0.697088L43.9688 1.58871L43.8573 15.4832L48.7984 9.61333C50.5321 10.1087 51.8077 10.9755 52.625 12.2139C53.4671 13.4523 53.8881 15.0993 53.8881 17.155L50.5074 18.6039L50.7303 19.0497C51.1266 19.9908 51.6591 20.9072 52.3278 21.7989C52.9965 22.6905 53.6404 23.3716 54.2596 23.8422L55.2627 23.2849L55.6714 24.3994ZM43.8202 20.0899L48.8356 17.7122C48.8356 17.1674 48.6251 16.573 48.204 15.929C47.8077 15.285 47.3248 14.8888 46.7551 14.7402L43.8573 17.2664L43.8202 20.0899ZM71.482 25.0681L66.0208 27.6316C65.3521 27.161 64.8939 26.517 64.6462 25.6997C63.7546 26.2446 62.8506 26.6904 61.9342 27.0372C61.0426 27.3839 60.2624 27.5573 59.5937 27.5573C58.5782 27.5573 57.7485 27.1981 57.1046 26.4799C56.4606 25.7616 56.1387 24.8452 56.1387 23.7307C56.1387 23.2354 56.1882 22.7029 56.2873 22.1332C56.4111 21.5388 56.5597 21.0682 56.7331 20.7215L64.6091 19.4583L64.6834 18.381C64.7329 17.2664 64.4976 16.3996 63.9775 15.7804C63.4574 15.1364 62.6153 14.8145 61.4512 14.8145C60.9311 14.8145 60.3863 14.8764 59.8166 15.0002C59.247 15.0993 58.764 15.2355 58.3677 15.4089L57.7733 16.672L56.7702 16.3005L58.4792 10.9508C60.3862 10.1334 62.1943 9.72478 63.9032 9.72478C65.6617 9.72478 67.0982 10.1954 68.2127 11.1365C69.3273 12.0529 69.8845 13.5018 69.8845 15.4832L69.8474 16.2262L69.4759 21.2416L69.4016 22.579C69.4016 23.0248 69.4387 23.384 69.513 23.6564C69.5873 23.9041 69.7112 24.1641 69.8845 24.4366L71.0362 23.9908L71.482 25.0681ZM63.0487 24.8824C63.445 24.8824 63.9032 24.7338 64.4233 24.4366L64.3862 23.6564L64.4233 22.8391L64.5348 20.7215L61.6742 21.3902C61.5751 21.7122 61.5255 22.1456 61.5255 22.6905C61.5255 23.4335 61.6742 23.9908 61.9714 24.3623C62.2686 24.709 62.6277 24.8824 63.0487 24.8824ZM90.3492 25.9226V27H82.3989V25.9226L83.7735 25.8112V17.9723C83.7735 16.8825 83.4639 16.0405 82.8447 15.446C82.2503 14.8516 81.4206 14.542 80.3556 14.5173L79.1668 15.7432L79.0182 25.8112L80.3927 25.9226V27H72.4053V25.9226L73.7799 25.8112L73.6684 12.5111L72.2567 12.8455L71.8852 11.7309L77.755 9.91054L79.0553 14.0714L82.1388 9.65048C84.4917 9.65048 86.2255 10.2077 87.34 11.3223C88.4545 12.4368 89.0118 14.1581 89.0118 16.4863V25.8112L90.3492 25.9226ZM106.565 25.0681L101.104 27.6316C100.435 27.161 99.9769 26.517 99.7293 25.6997C98.8376 26.2446 97.9336 26.6904 97.0172 27.0372C96.1256 27.3839 95.3454 27.5573 94.6767 27.5573C93.6613 27.5573 92.8316 27.1981 92.1876 26.4799C91.5437 25.7616 91.2217 24.8452 91.2217 23.7307C91.2217 23.2354 91.2712 22.7029 91.3703 22.1332C91.4941 21.5388 91.6427 21.0682 91.8161 20.7215L99.6921 19.4583L99.7664 18.381C99.8159 17.2664 99.5807 16.3996 99.0605 15.7804C98.5404 15.1364 97.6983 14.8145 96.5343 14.8145C96.0142 14.8145 95.4693 14.8764 94.8996 15.0002C94.33 15.0993 93.847 15.2355 93.4507 15.4089L92.8563 16.672L91.8532 16.3005L93.5622 10.9508C95.4693 10.1334 97.2773 9.72478 98.9862 9.72478C100.745 9.72478 102.181 10.1954 103.296 11.1365C104.41 12.0529 104.968 13.5018 104.968 15.4832L104.93 16.2262L104.559 21.2416L104.485 22.579C104.485 23.0248 104.522 23.384 104.596 23.6564C104.67 23.9041 104.794 24.1641 104.968 24.4366L106.119 23.9908L106.565 25.0681ZM98.1318 24.8824C98.528 24.8824 98.9862 24.7338 99.5064 24.4366L99.4692 23.6564L99.5064 22.8391L99.6178 20.7215L96.7572 21.3902C96.6581 21.7122 96.6086 22.1456 96.6086 22.6905C96.6086 23.4335 96.7572 23.9908 97.0544 24.3623C97.3516 24.709 97.7107 24.8824 98.1318 24.8824ZM124.759 10.282V11.4709L123.682 11.508L118.964 22.4676C117.676 25.514 116.338 28.3003 114.951 30.8266C113.589 33.3528 112.351 35.359 111.236 36.845L106.852 32.6841C109.924 30.9256 112.673 28.9938 115.1 26.8885L113.057 27L107.335 11.508L106.258 11.4709V10.282H115.063V11.4709L113.502 11.508L116.883 22.8762L119.93 11.508L118.369 11.4709V10.282H124.759ZM140.088 25.0681L134.627 27.6316C133.958 27.161 133.5 26.517 133.252 25.6997C132.361 26.2446 131.457 26.6904 130.54 27.0372C129.649 27.3839 128.868 27.5573 128.2 27.5573C127.184 27.5573 126.355 27.1981 125.711 26.4799C125.067 25.7616 124.745 24.8452 124.745 23.7307C124.745 23.2354 124.794 22.7029 124.893 22.1332C125.017 21.5388 125.166 21.0682 125.339 20.7215L133.215 19.4583L133.289 18.381C133.339 17.2664 133.104 16.3996 132.584 15.7804C132.063 15.1364 131.221 14.8145 130.057 14.8145C129.537 14.8145 128.992 14.8764 128.423 15.0002C127.853 15.0993 127.37 15.2355 126.974 15.4089L126.379 16.672L125.376 16.3005L127.085 10.9508C128.992 10.1334 130.8 9.72478 132.509 9.72478C134.268 9.72478 135.704 10.1954 136.819 11.1365C137.933 12.0529 138.491 13.5018 138.491 15.4832L138.453 16.2262L138.082 21.2416L138.008 22.579C138.008 23.0248 138.045 23.384 138.119 23.6564C138.193 23.9041 138.317 24.1641 138.491 24.4366L139.642 23.9908L140.088 25.0681ZM131.655 24.8824C132.051 24.8824 132.509 24.7338 133.029 24.4366L132.992 23.6564L133.029 22.8391L133.141 20.7215L130.28 21.3902C130.181 21.7122 130.132 22.1456 130.132 22.6905C130.132 23.4335 130.28 23.9908 130.577 24.3623C130.875 24.709 131.234 24.8824 131.655 24.8824Z" fill="#464646"/>
</svg>
